<svg width="500" height="500" viewBox="0 0 500 500" fill="none" xmlns="http://www.w3.org/2000/svg">
<path d="M167.295 219.979L184.858 263.5H174.212L170.983 254.792H154.42L151.212 263.5H140.545L158.108 219.979H167.295ZM167.608 246.083L162.754 233.437H162.65L157.795 246.083H167.608Z" fill="#B31942"/>
<path d="M204.167 219.979L221.73 263.5H211.084L207.855 254.792H191.292L188.084 263.5H177.417L194.98 219.979H204.167ZM204.48 246.083L199.625 233.437H199.521L194.667 246.083H204.48Z" fill="#B31942"/>
<path d="M218.941 219.979H234.504C238.681 219.979 242.092 221.099 244.733 223.333C247.368 225.573 248.691 228.76 248.691 232.896C248.691 236.104 247.889 238.792 246.295 240.958C244.697 243.115 242.525 244.635 239.775 245.521L254.754 263.5H242.15L228.858 246.312V263.5H218.941V219.979ZM228.858 239.292H230.025C230.926 239.292 231.697 239.281 232.337 239.25C232.973 239.208 233.697 239.083 234.504 238.875C235.306 238.656 235.952 238.354 236.441 237.979C236.941 237.594 237.363 237.031 237.712 236.292C238.072 235.542 238.254 234.641 238.254 233.583C238.254 232.531 238.072 231.635 237.712 230.896C237.363 230.161 236.941 229.599 236.441 229.208C235.952 228.823 235.306 228.521 234.504 228.312C233.697 228.104 232.973 227.99 232.337 227.958C231.697 227.917 230.926 227.896 230.025 227.896H228.858V239.292Z" fill="white"/>
<path d="M252.226 219.979H265.726C269.809 219.979 273.059 220.854 275.476 222.604C277.903 224.344 279.122 227.161 279.122 231.062C279.122 235.427 277.309 238.536 273.684 240.396C279.877 241.479 282.976 245.141 282.976 251.375C282.976 255.031 281.705 257.969 279.163 260.187C276.632 262.396 273.153 263.5 268.726 263.5H252.226V219.979ZM262.142 237.021H262.934C265.142 237.021 266.788 236.641 267.872 235.875C268.965 235.099 269.517 233.828 269.517 232.062C269.517 229.104 267.32 227.625 262.934 227.625H262.142V237.021ZM262.142 255.854H265.247C270.106 255.854 272.538 254.24 272.538 251C272.538 249.073 271.924 247.682 270.705 246.833C269.497 245.99 267.674 245.562 265.247 245.562H262.142V255.854Z" fill="white"/>
<path d="M304.983 219.979L322.546 263.5H311.9L308.671 254.792H292.108L288.9 263.5H278.233L295.796 219.979H304.983ZM305.296 246.083L300.441 233.437H300.337L295.483 246.083H305.296Z" fill="#0A3161"/>
<path d="M341.855 219.979L359.417 263.5H348.771L345.542 254.792H328.98L325.771 263.5H315.105L332.667 219.979H341.855ZM342.167 246.083L337.313 233.437H337.209L332.355 246.083H342.167Z" fill="#0A3161"/>
<path d="M121 285H205.432" stroke="#B31942" stroke-width="10"/>
<path d="M125.76 207.271V289.734" stroke="#B31942" stroke-width="10"/>
<path d="M373.432 194H289" stroke="#0A3161" stroke-width="10"/>
<path d="M372.99 271.349V188.885" stroke="#0A3161" stroke-width="10"/>
</svg>
